<svg width="49" height="51" viewBox="0 0 49 51" fill="none" xmlns="http://www.w3.org/2000/svg">
<path d="M14.7367 51C13.4955 51 12.4374 50.5487 11.5624 49.646C10.6874 48.7434 10.2499 47.6583 10.2499 46.3907C10.2499 45.1231 10.6919 44.0426 11.5757 43.1489C12.4595 42.2553 13.522 41.8085 14.7632 41.8085C16.0043 41.8085 17.0624 42.2598 17.9374 43.1625C18.8124 44.0652 19.2499 45.1503 19.2499 46.4178C19.2499 47.6854 18.808 48.766 17.9241 49.6596C17.0403 50.5532 15.9778 51 14.7367 51ZM39.7365 51C38.4954 51 37.4373 50.5487 36.5623 49.646C35.6873 48.7434 35.2498 47.6583 35.2498 46.3907C35.2498 45.1231 35.6917 44.0426 36.5755 43.1489C37.4594 42.2553 38.5219 41.8085 39.763 41.8085C41.0042 41.8085 42.0622 42.2598 42.9372 43.1625C43.8122 44.0652 44.2497 45.1503 44.2497 46.4178C44.2497 47.6854 43.8078 48.766 42.924 49.6596C42.0401 50.5532 40.9776 51 39.7365 51ZM11.4999 8.87234L18.3749 23.4255H36.3748L44.1872 8.87234H11.4999ZM9.62494 5.04255H46.4418C47.3987 5.04255 48.1267 5.48936 48.6259 6.38298C49.1251 7.2766 49.1247 8.17021 48.6247 9.06383L40.1873 24.5745C39.7289 25.383 39.1339 26.0319 38.4023 26.5213C37.6707 27.0106 36.8698 27.2553 35.9998 27.2553H17.0624L13.5624 33.8936H44.2497V37.7234H14.1249C12.3749 37.7234 11.1145 37.1277 10.3437 35.9362C9.57286 34.7447 9.58328 33.4043 10.3749 31.9149L14.3749 24.383L4.87497 3.82979H0V0H7.31246L9.62494 5.04255Z" fill="#ED9100"/>
</svg>
